<mxfile host="app.diagrams.net" modified="2024-06-26T07:11:08.219Z" agent="Mozilla/5.0 (Windows NT 10.0; Win64; x64) AppleWebKit/537.36 (KHTML, like Gecko) Chrome/126.0.0.0 Safari/537.36 Edg/126.0.0.0" version="24.6.3" etag="LIt8mdZqw5mofMYm5hEQ" type="device" pages="2">
  <diagram id="6b5v6xR5eTxYgu-dDTOZ" name="第 1 页">
    <mxGraphModel dx="1426" dy="751" grid="1" gridSize="10" guides="1" tooltips="1" connect="1" arrows="1" fold="1" page="1" pageScale="1" pageWidth="827" pageHeight="1169" math="0" shadow="0">
      <root>
        <mxCell id="0" />
        <mxCell id="1" parent="0" />
        <mxCell id="8fWbeH1L7mLXCWVokHOn-1" value="前台项目" style="rounded=0;whiteSpace=wrap;html=1;" vertex="1" parent="1">
          <mxGeometry x="40" y="40" width="420" height="220" as="geometry" />
        </mxCell>
        <mxCell id="8fWbeH1L7mLXCWVokHOn-2" value="后台项目：最传统的 web 开发，专用性 MYSQL 客户端。" style="rounded=0;whiteSpace=wrap;html=1;" vertex="1" parent="1">
          <mxGeometry x="40" y="520" width="420" height="260" as="geometry" />
        </mxCell>
        <mxCell id="8fWbeH1L7mLXCWVokHOn-3" value="MYSQL" style="shape=cylinder3;whiteSpace=wrap;html=1;boundedLbl=1;backgroundOutline=1;size=15;" vertex="1" parent="1">
          <mxGeometry x="900" y="670" width="60" height="80" as="geometry" />
        </mxCell>
        <mxCell id="8fWbeH1L7mLXCWVokHOn-4" value="文档&lt;div&gt;数据库&lt;/div&gt;" style="shape=cylinder3;whiteSpace=wrap;html=1;boundedLbl=1;backgroundOutline=1;size=15;" vertex="1" parent="1">
          <mxGeometry x="900" y="50" width="60" height="80" as="geometry" />
        </mxCell>
        <mxCell id="8fWbeH1L7mLXCWVokHOn-5" value="" style="endArrow=classic;html=1;rounded=0;entryX=0.5;entryY=1;entryDx=0;entryDy=0;entryPerimeter=0;exitX=0.5;exitY=0;exitDx=0;exitDy=0;" edge="1" parent="1" source="8fWbeH1L7mLXCWVokHOn-31" target="8fWbeH1L7mLXCWVokHOn-4">
          <mxGeometry width="50" height="50" relative="1" as="geometry">
            <mxPoint x="750" y="220" as="sourcePoint" />
            <mxPoint x="690" y="320" as="targetPoint" />
          </mxGeometry>
        </mxCell>
        <mxCell id="8fWbeH1L7mLXCWVokHOn-6" value="单向同步" style="edgeLabel;html=1;align=center;verticalAlign=middle;resizable=0;points=[];" vertex="1" connectable="0" parent="8fWbeH1L7mLXCWVokHOn-5">
          <mxGeometry x="-0.0071" relative="1" as="geometry">
            <mxPoint as="offset" />
          </mxGeometry>
        </mxCell>
        <mxCell id="8fWbeH1L7mLXCWVokHOn-11" value="" style="endArrow=classic;startArrow=classic;html=1;rounded=0;entryX=0;entryY=0.5;entryDx=0;entryDy=0;entryPerimeter=0;exitX=1;exitY=0.75;exitDx=0;exitDy=0;" edge="1" parent="1" source="8fWbeH1L7mLXCWVokHOn-2" target="8fWbeH1L7mLXCWVokHOn-3">
          <mxGeometry width="50" height="50" relative="1" as="geometry">
            <mxPoint x="510" y="660" as="sourcePoint" />
            <mxPoint x="560" y="610" as="targetPoint" />
          </mxGeometry>
        </mxCell>
        <mxCell id="8fWbeH1L7mLXCWVokHOn-12" value="CRUD" style="edgeLabel;html=1;align=center;verticalAlign=middle;resizable=0;points=[];" vertex="1" connectable="0" parent="8fWbeH1L7mLXCWVokHOn-11">
          <mxGeometry x="0.1006" y="1" relative="1" as="geometry">
            <mxPoint as="offset" />
          </mxGeometry>
        </mxCell>
        <mxCell id="8fWbeH1L7mLXCWVokHOn-14" value="" style="endArrow=classic;html=1;rounded=0;entryX=1;entryY=0.25;entryDx=0;entryDy=0;exitX=0;exitY=0.5;exitDx=0;exitDy=0;exitPerimeter=0;" edge="1" parent="1" source="8fWbeH1L7mLXCWVokHOn-4" target="8fWbeH1L7mLXCWVokHOn-1">
          <mxGeometry width="50" height="50" relative="1" as="geometry">
            <mxPoint x="540" y="230" as="sourcePoint" />
            <mxPoint x="590" y="180" as="targetPoint" />
          </mxGeometry>
        </mxCell>
        <mxCell id="8fWbeH1L7mLXCWVokHOn-15" value="单向查询" style="edgeLabel;html=1;align=center;verticalAlign=middle;resizable=0;points=[];" vertex="1" connectable="0" parent="8fWbeH1L7mLXCWVokHOn-14">
          <mxGeometry x="0.0308" y="4" relative="1" as="geometry">
            <mxPoint as="offset" />
          </mxGeometry>
        </mxCell>
        <mxCell id="8fWbeH1L7mLXCWVokHOn-17" value="" style="endArrow=classic;html=1;rounded=0;entryX=0;entryY=0;entryDx=0;entryDy=0;exitX=0.25;exitY=1;exitDx=0;exitDy=0;entryPerimeter=0;" edge="1" parent="1" source="8fWbeH1L7mLXCWVokHOn-1" target="8fWbeH1L7mLXCWVokHOn-19">
          <mxGeometry width="50" height="50" relative="1" as="geometry">
            <mxPoint x="-100" y="450" as="sourcePoint" />
            <mxPoint x="145" y="330" as="targetPoint" />
          </mxGeometry>
        </mxCell>
        <mxCell id="8fWbeH1L7mLXCWVokHOn-18" value="修改申请" style="edgeLabel;html=1;align=center;verticalAlign=middle;resizable=0;points=[];" vertex="1" connectable="0" parent="8fWbeH1L7mLXCWVokHOn-17">
          <mxGeometry x="0.0286" y="-1" relative="1" as="geometry">
            <mxPoint as="offset" />
          </mxGeometry>
        </mxCell>
        <mxCell id="8fWbeH1L7mLXCWVokHOn-19" value="任务队列" style="shape=cube;whiteSpace=wrap;html=1;boundedLbl=1;backgroundOutline=1;darkOpacity=0.05;darkOpacity2=0.1;" vertex="1" parent="1">
          <mxGeometry x="500" y="360" width="120" height="80" as="geometry" />
        </mxCell>
        <mxCell id="8fWbeH1L7mLXCWVokHOn-28" value="" style="endArrow=classic;html=1;rounded=0;entryX=0.145;entryY=0;entryDx=0;entryDy=4.35;entryPerimeter=0;exitX=0;exitY=0;exitDx=120;exitDy=50;exitPerimeter=0;" edge="1" parent="1" source="8fWbeH1L7mLXCWVokHOn-19" target="8fWbeH1L7mLXCWVokHOn-3">
          <mxGeometry width="50" height="50" relative="1" as="geometry">
            <mxPoint x="830" y="510" as="sourcePoint" />
            <mxPoint x="880" y="460" as="targetPoint" />
          </mxGeometry>
        </mxCell>
        <mxCell id="8fWbeH1L7mLXCWVokHOn-31" value="同步程序" style="ellipse;whiteSpace=wrap;html=1;aspect=fixed;" vertex="1" parent="1">
          <mxGeometry x="890" y="350" width="80" height="80" as="geometry" />
        </mxCell>
        <mxCell id="8fWbeH1L7mLXCWVokHOn-32" value="" style="endArrow=classic;html=1;rounded=0;entryX=0.5;entryY=1;entryDx=0;entryDy=0;exitX=0.5;exitY=0;exitDx=0;exitDy=0;exitPerimeter=0;" edge="1" parent="1" source="8fWbeH1L7mLXCWVokHOn-3" target="8fWbeH1L7mLXCWVokHOn-31">
          <mxGeometry width="50" height="50" relative="1" as="geometry">
            <mxPoint x="1010" y="610" as="sourcePoint" />
            <mxPoint x="1060" y="560" as="targetPoint" />
          </mxGeometry>
        </mxCell>
        <mxCell id="8fWbeH1L7mLXCWVokHOn-33" value="binlog" style="edgeLabel;html=1;align=center;verticalAlign=middle;resizable=0;points=[];" vertex="1" connectable="0" parent="8fWbeH1L7mLXCWVokHOn-32">
          <mxGeometry x="0.0083" y="1" relative="1" as="geometry">
            <mxPoint as="offset" />
          </mxGeometry>
        </mxCell>
        <mxCell id="8fWbeH1L7mLXCWVokHOn-36" value="" style="endArrow=classic;html=1;rounded=0;entryX=0;entryY=0;entryDx=0;entryDy=27.5;entryPerimeter=0;exitX=1;exitY=0.25;exitDx=0;exitDy=0;" edge="1" parent="1" source="8fWbeH1L7mLXCWVokHOn-2" target="8fWbeH1L7mLXCWVokHOn-3">
          <mxGeometry width="50" height="50" relative="1" as="geometry">
            <mxPoint x="560" y="600" as="sourcePoint" />
            <mxPoint x="610" y="550" as="targetPoint" />
          </mxGeometry>
        </mxCell>
        <mxCell id="8fWbeH1L7mLXCWVokHOn-37" value="修改审核结果" style="edgeLabel;html=1;align=center;verticalAlign=middle;resizable=0;points=[];" vertex="1" connectable="0" parent="8fWbeH1L7mLXCWVokHOn-36">
          <mxGeometry x="-0.0419" y="2" relative="1" as="geometry">
            <mxPoint as="offset" />
          </mxGeometry>
        </mxCell>
        <mxCell id="8fWbeH1L7mLXCWVokHOn-38" value="数据治理程序" style="ellipse;whiteSpace=wrap;html=1;aspect=fixed;" vertex="1" parent="1">
          <mxGeometry x="610" y="930" width="80" height="80" as="geometry" />
        </mxCell>
        <mxCell id="8fWbeH1L7mLXCWVokHOn-39" value="" style="endArrow=classic;startArrow=classic;html=1;rounded=0;entryX=1;entryY=0;entryDx=0;entryDy=0;exitX=0.5;exitY=1;exitDx=0;exitDy=0;exitPerimeter=0;" edge="1" parent="1" source="8fWbeH1L7mLXCWVokHOn-3" target="8fWbeH1L7mLXCWVokHOn-38">
          <mxGeometry width="50" height="50" relative="1" as="geometry">
            <mxPoint x="1060" y="670" as="sourcePoint" />
            <mxPoint x="1110" y="620" as="targetPoint" />
          </mxGeometry>
        </mxCell>
      </root>
    </mxGraphModel>
  </diagram>
  <diagram id="1OAxIVEIirGC-m_W9jun" name="第 2 页">
    <mxGraphModel dx="1426" dy="751" grid="1" gridSize="10" guides="1" tooltips="1" connect="1" arrows="1" fold="1" page="1" pageScale="1" pageWidth="1200" pageHeight="1920" math="0" shadow="0">
      <root>
        <mxCell id="0" />
        <mxCell id="1" parent="0" />
      </root>
    </mxGraphModel>
  </diagram>
</mxfile>
